<svg xmlns="http://www.w3.org/2000/svg" viewBox="0 0 286.417 249.562"><path d="M265.256 186.201l-70.85-180.09c-1.39-3.48-2.6-6.17-7.54-6.11l-86.69.1c-3.73-.02-5.39 1.1-6.88 4.86l-72.182 181.24z" fill="#d33333"/><path d="M110.675 118.489l32.35 82.34-13.63 34.69c-3.81 9.32-9.96 13.83-17.86 13.93-30.84.37-91.93-.32-102.07 0a9.18 9.18 0 0 1-7.788-3.888 9.18 9.18 0 0 1-1.042-8.642l20.92-51.831h58.52c1.965 0 3.71-3.02 4.4-4.71l25.66-65.02a6.6 6.6 0 0 1 .9-1.6c-.505.842-.764 1.808-.75 2.79a5.37 5.37 0 0 0 .39 1.941z" fill="#ed6332"/><path d="M264.828 185.089l20.957 51.826c1.126 2.874.733 6.12-1.046 8.642s-4.705 3.982-7.79 3.887c-10.139-.315-71.595.371-102.429 0-7.9-.095-13.219-3.2-17.861-13.923l-45.986-117.036c-.661-1.63-.475-3.481.498-4.947s2.607-2.356 4.366-2.379h54.224c2.725-.01 5.174 1.66 6.161 4.2l25.659 65.018c1.533 2.881 2.449 4.712 4.369 4.712z" fill="#edb843"/></svg>
